<svg xmlns="http://www.w3.org/2000/svg" xmlns:xlink="http://www.w3.org/1999/xlink" width="790" height="385.65"><rect width="790" height="385.65" rx="5" ry="5" class="a"/><svg y="0%" x="0%"><circle cx="20" cy="20" r="6" fill="#ff5f58"/><circle cx="40" cy="20" r="6" fill="#ffbd2e"/><circle cx="60" cy="20" r="6" fill="#18c132"/></svg><svg height="325.65" viewBox="0 0 75 32.565" width="750" x="15" xmlns="http://www.w3.org/2000/svg" xmlns:xlink="http://www.w3.org/1999/xlink" y="50"><style>@keyframes k{0%{transform:translateX(0)}.07%{transform:translateX(-75px)}3.36%{transform:translateX(-150px)}4.08%{transform:translateX(-225px)}4.46%{transform:translateX(-300px)}4.66%{transform:translateX(-375px)}4.9%{transform:translateX(-450px)}5.2%{transform:translateX(-525px)}5.48%{transform:translateX(-600px)}5.69%{transform:translateX(-675px)}5.9%{transform:translateX(-750px)}6.32%{transform:translateX(-825px)}6.5%{transform:translateX(-900px)}6.71%{transform:translateX(-975px)}6.95%{transform:translateX(-1050px)}7.18%{transform:translateX(-1125px)}7.59%{transform:translateX(-1200px)}10.67%{transform:translateX(-1275px)}10.68%{transform:translateX(-1350px)}10.77%{transform:translateX(-1425px)}15.54%{transform:translateX(-1500px)}16.15%{transform:translateX(-1575px)}16.49%{transform:translateX(-1650px)}16.65%{transform:translateX(-1725px)}16.93%{transform:translateX(-1800px)}17.37%{transform:translateX(-1875px)}17.66%{transform:translateX(-1950px)}17.94%{transform:translateX(-2025px)}18.18%{transform:translateX(-2100px)}18.37%{transform:translateX(-2175px)}18.59%{transform:translateX(-2250px)}18.8%{transform:translateX(-2325px)}19.16%{transform:translateX(-2400px)}19.41%{transform:translateX(-2475px)}19.59%{transform:translateX(-2550px)}19.95%{transform:translateX(-2625px)}20.37%{transform:translateX(-2700px)}20.65%{transform:translateX(-2775px)}20.88%{transform:translateX(-2850px)}21.18%{transform:translateX(-2925px)}22.46%{transform:translateX(-3000px)}22.61%{transform:translateX(-3075px)}22.93%{transform:translateX(-3150px)}23.09%{transform:translateX(-3225px)}23.31%{transform:translateX(-3300px)}23.66%{transform:translateX(-3375px)}26.66%{transform:translateX(-3450px)}32.78%{transform:translateX(-3525px)}32.88%{transform:translateX(-3600px)}38.07%{transform:translateX(-3675px)}38.52%{transform:translateX(-3750px)}39.05%{transform:translateX(-3825px)}39.35%{transform:translateX(-3900px)}39.64%{transform:translateX(-3975px)}40%{transform:translateX(-4050px)}40.29%{transform:translateX(-4125px)}40.57%{transform:translateX(-4200px)}41.18%{transform:translateX(-4275px)}41.76%{transform:translateX(-4350px)}41.96%{transform:translateX(-4425px)}42.21%{transform:translateX(-4500px)}42.66%{transform:translateX(-4575px)}42.98%{transform:translateX(-4650px)}43.19%{transform:translateX(-4725px)}43.64%{transform:translateX(-4800px)}43.96%{transform:translateX(-4875px)}44.2%{transform:translateX(-4950px)}44.38%{transform:translateX(-5025px)}44.68%{transform:translateX(-5100px)}45.03%{transform:translateX(-5175px)}45.21%{transform:translateX(-5250px)}45.51%{transform:translateX(-5325px)}45.83%{transform:translateX(-5400px)}46%{transform:translateX(-5475px)}46.31%{transform:translateX(-5550px)}47.96%{transform:translateX(-5625px)}48.96%{transform:translateX(-5700px)}49.25%{transform:translateX(-5775px)}51.39%{transform:translateX(-5850px)}51.69%{transform:translateX(-5925px)}51.97%{transform:translateX(-6000px)}52.55%{transform:translateX(-6075px)}57.84%{transform:translateX(-6150px)}57.88%{transform:translateX(-6225px)}57.96%{transform:translateX(-6300px)}65.37%{transform:translateX(-6375px)}65.69%{transform:translateX(-6450px)}65.97%{transform:translateX(-6525px)}66.18%{transform:translateX(-6600px)}66.44%{transform:translateX(-6675px)}66.77%{transform:translateX(-6750px)}67.07%{transform:translateX(-6825px)}67.33%{transform:translateX(-6900px)}67.7%{transform:translateX(-6975px)}67.9%{transform:translateX(-7050px)}68.09%{transform:translateX(-7125px)}68.31%{transform:translateX(-7200px)}68.69%{transform:translateX(-7275px)}68.93%{transform:translateX(-7350px)}69.19%{transform:translateX(-7425px)}72.56%{transform:translateX(-7500px)}72.94%{transform:translateX(-7575px)}73.17%{transform:translateX(-7650px)}73.31%{transform:translateX(-7725px)}73.61%{transform:translateX(-7800px)}76.71%{transform:translateX(-7875px)}79.6%{transform:translateX(-7950px)}79.69%{transform:translateX(-8025px)}82.02%{transform:translateX(-8100px)}82.86%{transform:translateX(-8175px)}83.17%{transform:translateX(-8250px)}83.4%{transform:translateX(-8325px)}83.69%{transform:translateX(-8400px)}84.05%{transform:translateX(-8475px)}84.35%{transform:translateX(-8550px)}84.56%{transform:translateX(-8625px)}85.02%{transform:translateX(-8700px)}85.29%{transform:translateX(-8775px)}85.43%{transform:translateX(-8850px)}85.67%{transform:translateX(-8925px)}86.09%{transform:translateX(-9000px)}86.31%{transform:translateX(-9075px)}86.51%{transform:translateX(-9150px)}86.88%{transform:translateX(-9225px)}87.11%{transform:translateX(-9300px)}88.04%{transform:translateX(-9375px)}88.27%{transform:translateX(-9450px)}88.62%{transform:translateX(-9525px)}91.72%{transform:translateX(-9600px)}94.78%{transform:translateX(-9675px)}94.87%{transform:translateX(-9750px)}to{transform:translateX(-9825px)}}.a{fill:#282d35}.f{fill:#dbab79}.g{fill:#b9c0cb}.h{fill:#e88388}</style><g font-size="1.67" font-family="Monaco,Consolas,Menlo,'Bitstream Vera Sans Mono','Powerline Symbols',monospace"><defs><symbol id="1"><text y="1.67" class="f">frost@winter</text><text x="12.024" y="1.67" class="g">:acadbot</text><text x="21.042" y="1.67" class="h">(master)</text><text x="29.058" y="1.67" class="g">$</text></symbol><symbol id="2"><text y="1.67" class="f">frost@winter</text><text x="12.024" y="1.67" class="g">:acadbot</text><text x="21.042" y="1.67" class="h">(master)</text><text x="29.058" y="1.67" class="g">$</text><text x="31.062" y="1.67" class="g">a</text></symbol><symbol id="3"><text y="1.67" class="f">frost@winter</text><text x="12.024" y="1.67" class="g">:acadbot</text><text x="21.042" y="1.67" class="h">(master)</text><text x="29.058" y="1.67" class="g">$</text><text x="31.062" y="1.67" class="g">ac</text></symbol><symbol id="4"><text y="1.67" class="f">frost@winter</text><text x="12.024" y="1.67" class="g">:acadbot</text><text x="21.042" y="1.67" class="h">(master)</text><text x="29.058" y="1.67" class="g">$</text><text x="31.062" y="1.67" class="g">aca</text></symbol><symbol id="5"><text y="1.67" class="f">frost@winter</text><text x="12.024" y="1.67" class="g">:acadbot</text><text x="21.042" y="1.67" class="h">(master)</text><text x="29.058" y="1.67" class="g">$</text><text x="31.062" y="1.67" class="g">acad</text></symbol><symbol id="6"><text y="1.67" class="f">frost@winter</text><text x="12.024" y="1.67" class="g">:acadbot</text><text x="21.042" y="1.67" class="h">(master)</text><text x="29.058" y="1.67" class="g">$</text><text x="31.062" y="1.67" class="g">acadb</text></symbol><symbol id="7"><text y="1.67" class="f">frost@winter</text><text x="12.024" y="1.67" class="g">:acadbot</text><text x="21.042" y="1.67" class="h">(master)</text><text x="29.058" y="1.67" class="g">$</text><text x="31.062" y="1.67" class="g">acadbo</text></symbol><symbol id="8"><text y="1.67" class="f">frost@winter</text><text x="12.024" y="1.67" class="g">:acadbot</text><text x="21.042" y="1.67" class="h">(master)</text><text x="29.058" y="1.67" class="g">$</text><text x="31.062" y="1.67" class="g">acadbot</text></symbol><symbol id="9"><text y="1.67" class="f">frost@winter</text><text x="12.024" y="1.67" class="g">:acadbot</text><text x="21.042" y="1.67" class="h">(master)</text><text x="29.058" y="1.67" class="g">$</text><text x="31.062" y="1.67" class="g">acadbot</text><text x="39.078" y="1.67" class="g">hello</text></symbol><symbol id="10"><text y="1.67" class="g">acadbot:</text><text x="9.018" y="1.67" class="g">Hello</text><text x="15.03" y="1.67" class="g">151301!</text></symbol><symbol id="11"><text y="1.67" class="g">acadbot:</text><text x="9.018" y="1.67" class="g">I</text><text x="11.022" y="1.67" class="g">am</text><text x="14.028" y="1.67" class="g">happy</text><text x="20.04" y="1.67" class="g">to</text><text x="23.046" y="1.67" class="g">help</text><text x="28.056" y="1.67" class="g">you</text><text x="32.064" y="1.67" class="g">with</text><text x="37.074" y="1.67" class="g">your</text><text x="42.084" y="1.67" class="g">WebKiosk</text><text x="51.102" y="1.67" class="g">needs...</text></symbol><symbol id="12"><text y="1.67" class="g">------</text><text x="8.016" y="1.67" class="g">-----------------------</text></symbol><symbol id="13"><text y="1.67" class="g">Usage:</text><text x="8.016" y="1.67" class="g">acadbot</text><text x="16.032" y="1.67" class="g">--help</text><text x="23.046" y="1.67" class="g">[option]</text></symbol><symbol id="14"><text y="1.67" class="f">frost@winter</text><text x="12.024" y="1.67" class="g">:acadbot</text><text x="21.042" y="1.67" class="h">(master)</text><text x="29.058" y="1.67" class="g">$</text><text x="31.062" y="1.67" class="g">acadbot</text><text x="39.078" y="1.67" class="g">f</text></symbol><symbol id="15"><text y="1.67" class="f">frost@winter</text><text x="12.024" y="1.67" class="g">:acadbot</text><text x="21.042" y="1.67" class="h">(master)</text><text x="29.058" y="1.67" class="g">$</text><text x="31.062" y="1.67" class="g">acadbot</text><text x="39.078" y="1.67" class="g">fe</text></symbol><symbol id="16"><text y="1.67" class="f">frost@winter</text><text x="12.024" y="1.67" class="g">:acadbot</text><text x="21.042" y="1.67" class="h">(master)</text><text x="29.058" y="1.67" class="g">$</text><text x="31.062" y="1.67" class="g">acadbot</text><text x="39.078" y="1.67" class="g">fet</text></symbol><symbol id="17"><text y="1.67" class="f">frost@winter</text><text x="12.024" y="1.67" class="g">:acadbot</text><text x="21.042" y="1.67" class="h">(master)</text><text x="29.058" y="1.67" class="g">$</text><text x="31.062" y="1.67" class="g">acadbot</text><text x="39.078" y="1.67" class="g">fetc</text></symbol><symbol id="18"><text y="1.67" class="f">frost@winter</text><text x="12.024" y="1.67" class="g">:acadbot</text><text x="21.042" y="1.67" class="h">(master)</text><text x="29.058" y="1.67" class="g">$</text><text x="31.062" y="1.67" class="g">acadbot</text><text x="39.078" y="1.67" class="g">fetch</text></symbol><symbol id="19"><text y="1.67" class="f">frost@winter</text><text x="12.024" y="1.67" class="g">:acadbot</text><text x="21.042" y="1.67" class="h">(master)</text><text x="29.058" y="1.67" class="g">$</text><text x="31.062" y="1.67" class="g">acadbot</text><text x="39.078" y="1.67" class="g">fetch</text><text x="45.09" y="1.67" class="g">attendance</text></symbol><symbol id="20"><text y="1.67" class="g">acadbot:</text><text x="9.018" y="1.67" class="g">Fetching</text><text x="18.036" y="1.67" class="g">attendance...</text></symbol><symbol id="21"><text y="1.67" class="g">Subject</text><text x="8.016" y="1.67" class="g">Name</text><text x="42.084" y="1.67" class="g">Total</text></symbol><symbol id="22"><text y="1.67" class="g">--------------------------------------</text><text x="40.08" y="1.67" class="g">-------</text></symbol><symbol id="23"><text y="1.67" class="g">COMPILER</text><text x="9.018" y="1.67" class="g">DESIGN</text><text x="45.09" y="1.67" class="g">87</text></symbol><symbol id="24"><text y="1.67" class="g">COMPUTER</text><text x="9.018" y="1.67" class="g">GRAPHICS</text><text x="45.09" y="1.67" class="g">78</text></symbol><symbol id="25"><text y="1.67" class="g">PROJECT</text><text x="8.016" y="1.67" class="g">MANAGEMENT</text><text x="45.09" y="1.67" class="g">80</text></symbol><symbol id="26"><text y="1.67" class="g">COMPILER</text><text x="9.018" y="1.67" class="g">DESIGN</text><text x="16.032" y="1.67" class="g">LAB</text><text x="45.09" y="1.67" class="g">90</text></symbol><symbol id="27"><text y="1.67" class="g">COMPUTER</text><text x="9.018" y="1.67" class="g">NETWORKS</text><text x="18.036" y="1.67" class="g">LAB</text><text x="45.09" y="1.67" class="g">80</text></symbol><symbol id="28"><text y="1.67" class="g">SYSTEM</text><text x="7.014" y="1.67" class="g">AND</text><text x="11.022" y="1.67" class="g">NETWORK</text><text x="19.038" y="1.67" class="g">PROGRAMMING</text><text x="31.062" y="1.67" class="g">LAB</text><text x="45.09" y="1.67" class="g">94</text></symbol><symbol id="29"><text y="1.67" class="g">MATERIAL</text><text x="9.018" y="1.67" class="g">SCIENCES</text><text x="45.09" y="1.67" class="g">83</text></symbol><symbol id="30"><text y="1.67" class="g">COMPUTER</text><text x="9.018" y="1.67" class="g">NETWORKS</text><text x="45.09" y="1.67" class="g">80</text></symbol><symbol id="31"><text y="1.67" class="g">COMPUTER</text><text x="9.018" y="1.67" class="g">ORGANISATION</text><text x="22.044" y="1.67" class="g">AND</text><text x="26.052" y="1.67" class="g">ARCHITECTURE</text><text x="45.09" y="1.67" class="g">81</text></symbol><symbol id="32"><text y="1.67" class="g">COMPUTER</text><text x="9.018" y="1.67" class="g">GRAPHICS</text><text x="18.036" y="1.67" class="g">LAB</text><text x="44.088" y="1.67" class="g">100</text></symbol><symbol id="33"><text y="1.67" class="f">frost@winter</text><text x="12.024" y="1.67" class="g">:acadbot</text><text x="21.042" y="1.67" class="h">(master)</text><text x="29.058" y="1.67" class="g">$</text><text x="31.062" y="1.67" class="g">acadbot</text><text x="39.078" y="1.67" class="g">fetch</text><text x="45.09" y="1.67" class="g">time-table</text></symbol><symbol id="34"><text y="1.67" class="f">frost@winter</text><text x="12.024" y="1.67" class="g">:acadbot</text><text x="21.042" y="1.67" class="h">(master)</text><text x="29.058" y="1.67" class="g">$</text><text x="31.062" y="1.67" class="g">acadbot</text><text x="39.078" y="1.67" class="g">fetch</text><text x="45.09" y="1.67" class="g">time-table</text><text x="56.112" y="1.67" class="g">x8</text></symbol><symbol id="35"><text y="1.67" class="f">frost@winter</text><text x="12.024" y="1.67" class="g">:acadbot</text><text x="21.042" y="1.67" class="h">(master)</text><text x="29.058" y="1.67" class="g">$</text><text x="31.062" y="1.67" class="g">acadbot</text><text x="39.078" y="1.67" class="g">fetch</text><text x="45.09" y="1.67" class="g">time-table</text><text x="56.112" y="1.67" class="g">x8</text><text x="59.118" y="1.67" class="g">mon</text></symbol><symbol id="36"><text y="1.67" class="g">Mon</text></symbol><symbol id="37"><text y="1.67" class="g">--------</text><text x="10.02" y="1.67" class="g">-</text><text x="13.026" y="1.67" class="g">--------------------------------------</text><text x="53.106" y="1.67" class="g">---</text></symbol><symbol id="38"><text y="1.67" class="g">09:00</text><text x="6.012" y="1.67" class="g">AM</text><text x="10.02" y="1.67" class="g">L</text><text x="13.026" y="1.67" class="g">MATERIAL</text><text x="22.044" y="1.67" class="g">SCIENCES</text><text x="53.106" y="1.67" class="g">CR2</text></symbol><symbol id="39"><text y="1.67" class="g">10:00</text><text x="6.012" y="1.67" class="g">AM</text><text x="10.02" y="1.67" class="g">L</text><text x="13.026" y="1.67" class="g">COMPILER</text><text x="22.044" y="1.67" class="g">DESIGN</text><text x="53.106" y="1.67" class="g">CR2</text></symbol><symbol id="40"><text y="1.67" class="g">11:00</text><text x="6.012" y="1.67" class="g">AM</text><text x="10.02" y="1.67" class="g">P</text><text x="13.026" y="1.67" class="g">COMPUTER</text><text x="22.044" y="1.67" class="g">NETWORKS</text><text x="31.062" y="1.67" class="g">LAB</text><text x="53.106" y="1.67" class="g">CL4</text></symbol><symbol id="41"><text y="1.67" class="g">12:00</text><text x="6.012" y="1.67" class="g">PM</text><text x="10.02" y="1.67" class="g">P</text><text x="13.026" y="1.67" class="g">COMPUTER</text><text x="22.044" y="1.67" class="g">NETWORKS</text><text x="31.062" y="1.67" class="g">LAB</text><text x="53.106" y="1.67" class="g">CL4</text></symbol><symbol id="42"><text y="1.67" class="g">02:00</text><text x="6.012" y="1.67" class="g">PM</text><text x="10.02" y="1.67" class="g">L</text><text x="13.026" y="1.67" class="g">COMPUTER</text><text x="22.044" y="1.67" class="g">ORGANISATION</text><text x="35.07" y="1.67" class="g">AND</text><text x="39.078" y="1.67" class="g">ARCHITECTURE</text><text x="53.106" y="1.67" class="g">CR2</text></symbol><symbol id="43"><text y="1.67" class="g">03:00</text><text x="6.012" y="1.67" class="g">PM</text><text x="10.02" y="1.67" class="g">L</text><text x="13.026" y="1.67" class="g">COMPUTER</text><text x="22.044" y="1.67" class="g">GRAPHICS</text><text x="53.106" y="1.67" class="g">CR2</text></symbol><symbol id="44"><text y="1.67" class="g">04:00</text><text x="6.012" y="1.67" class="g">PM</text><text x="10.02" y="1.67" class="g">T</text><text x="13.026" y="1.67" class="g">COMPUTER</text><text x="22.044" y="1.67" class="g">NETWORKS</text><text x="53.106" y="1.67" class="g">CR2</text></symbol><symbol id="45"><text y="1.67" class="f">frost@winter</text><text x="12.024" y="1.67" class="g">:acadbot</text><text x="21.042" y="1.67" class="h">(master)</text><text x="29.058" y="1.67" class="g">$</text><text x="31.062" y="1.67" class="g">acadbot</text><text x="39.078" y="1.67" class="g">fetch</text><text x="45.09" y="1.67" class="g">cgpa</text></symbol><symbol id="46"><text y="1.67" class="g">acadbot:</text><text x="9.018" y="1.67" class="g">Fetching</text><text x="18.036" y="1.67" class="g">CGPA...</text></symbol><symbol id="47"><text y="1.67" class="g">-----</text><text x="7.014" y="1.67" class="g">---</text></symbol><symbol id="48"><text y="1.67" class="g">CGPA:</text><text x="7.014" y="1.67" class="g">8.6</text></symbol><symbol id="49"><text y="1.67" class="f">frost@winter</text><text x="12.024" y="1.67" class="g">:acadbot</text><text x="21.042" y="1.67" class="h">(master)</text><text x="29.058" y="1.67" class="g">$</text><text x="31.062" y="1.67" class="g">acadbot</text><text x="39.078" y="1.67" class="g">fetch</text><text x="45.09" y="1.67" class="g">sgpa</text></symbol><symbol id="50"><text y="1.67" class="g">acadbot:</text><text x="9.018" y="1.67" class="g">Fetching</text><text x="18.036" y="1.67" class="g">SGPA...</text></symbol><symbol id="51"><text x="2.004" y="1.67" class="g">Semester</text><text x="14.028" y="1.67" class="g">SGPA</text></symbol><symbol id="52"><text y="1.67" class="g">----------</text><text x="12.024" y="1.67" class="g">------</text></symbol><symbol id="53"><text x="9.018" y="1.67" class="g">1</text><text x="15.03" y="1.67" class="g">8.3</text></symbol><symbol id="54"><text x="9.018" y="1.67" class="g">2</text><text x="15.03" y="1.67" class="g">8.7</text></symbol><symbol id="55"><text x="9.018" y="1.67" class="g">3</text><text x="15.03" y="1.67" class="g">9</text></symbol><symbol id="56"><text x="9.018" y="1.67" class="g">4</text><text x="15.03" y="1.67" class="g">8.5</text></symbol><symbol id="57"><text x="9.018" y="1.67" class="g">5</text><text x="15.03" y="1.67" class="g">8.4</text></symbol><symbol id="a"><path fill="transparent" d="M0 0h75v16H0z"/></symbol><symbol id="b"><path fill="#6f7683" d="M0 0h1.102v2.171H0z"/></symbol></defs><path class="a" d="M0 0h75v32.565H0z"/><g style="animation-duration:63.421859s;animation-iteration-count:infinite;animation-name:k;animation-timing-function:steps(1,end)"><svg width="9900"><svg><use xlink:href="#a"/><use xlink:href="#b" x="-.004"/></svg><svg x="75"><use xlink:href="#a"/><use xlink:href="#b" x="30.996"/><use xlink:href="#1"/></svg><svg x="150"><use xlink:href="#a"/><use xlink:href="#b" x="30.996"/><use xlink:href="#1"/></svg><svg x="225"><use xlink:href="#a"/><use xlink:href="#b" x="31.996"/><use xlink:href="#2"/></svg><svg x="300"><use xlink:href="#a"/><use xlink:href="#b" x="32.996"/><use xlink:href="#3"/></svg><svg x="375"><use xlink:href="#a"/><use xlink:href="#b" x="33.996"/><use xlink:href="#4"/></svg><svg x="450"><use xlink:href="#a"/><use xlink:href="#b" x="34.996"/><use xlink:href="#5"/></svg><svg x="525"><use xlink:href="#a"/><use xlink:href="#b" x="35.996"/><use xlink:href="#6"/></svg><svg x="600"><use xlink:href="#a"/><use xlink:href="#b" x="36.996"/><use xlink:href="#7"/></svg><svg x="675"><use xlink:href="#a"/><use xlink:href="#b" x="37.996"/><use xlink:href="#8"/></svg><svg x="750"><use xlink:href="#a"/><use xlink:href="#b" x="38.996"/><use xlink:href="#8"/></svg><svg x="825"><use xlink:href="#a"/><use xlink:href="#b" x="39.996"/><text y="1.67" class="f">frost@winter</text><text x="12.024" y="1.67" class="g">:acadbot</text><text x="21.042" y="1.67" class="h">(master)</text><text x="29.058" y="1.67" class="g">$</text><text x="31.062" y="1.67" class="g">acadbot</text><text x="39.078" y="1.67" class="g">h</text></svg><svg x="900"><use xlink:href="#a"/><use xlink:href="#b" x="40.996"/><text y="1.67" class="f">frost@winter</text><text x="12.024" y="1.67" class="g">:acadbot</text><text x="21.042" y="1.67" class="h">(master)</text><text x="29.058" y="1.67" class="g">$</text><text x="31.062" y="1.67" class="g">acadbot</text><text x="39.078" y="1.67" class="g">he</text></svg><svg x="975"><use xlink:href="#a"/><use xlink:href="#b" x="41.996"/><text y="1.67" class="f">frost@winter</text><text x="12.024" y="1.67" class="g">:acadbot</text><text x="21.042" y="1.67" class="h">(master)</text><text x="29.058" y="1.67" class="g">$</text><text x="31.062" y="1.67" class="g">acadbot</text><text x="39.078" y="1.67" class="g">hel</text></svg><svg x="1050"><use xlink:href="#a"/><use xlink:href="#b" x="42.996"/><text y="1.67" class="f">frost@winter</text><text x="12.024" y="1.67" class="g">:acadbot</text><text x="21.042" y="1.67" class="h">(master)</text><text x="29.058" y="1.67" class="g">$</text><text x="31.062" y="1.67" class="g">acadbot</text><text x="39.078" y="1.67" class="g">hell</text></svg><svg x="1125"><use xlink:href="#a"/><use xlink:href="#b" x="43.996"/><use xlink:href="#9"/></svg><svg x="1200"><use xlink:href="#a"/><use xlink:href="#b" x="-.004" y="2.146"/><use xlink:href="#9"/></svg><svg x="1275"><use xlink:href="#a"/><use xlink:href="#b" x="-.004" y="8.659"/><use xlink:href="#9"/><use xlink:href="#10" y="2.171"/><use xlink:href="#11" y="4.342"/></svg><svg x="1350"><use xlink:href="#a"/><use xlink:href="#b" x="-.004" y="17.343"/><use xlink:href="#9"/><use xlink:href="#10" y="2.171"/><use xlink:href="#11" y="4.342"/><use xlink:href="#12" y="8.684"/><use xlink:href="#13" y="10.855"/><use xlink:href="#12" y="13.026"/></svg><svg x="1425"><use xlink:href="#a"/><use xlink:href="#b" x="30.996" y="17.343"/><use xlink:href="#9"/><use xlink:href="#10" y="2.171"/><use xlink:href="#11" y="4.342"/><use xlink:href="#12" y="8.684"/><use xlink:href="#13" y="10.855"/><use xlink:href="#12" y="13.026"/><use xlink:href="#1" y="17.368"/></svg><svg x="1500"><use xlink:href="#a"/><use xlink:href="#b" x="30.996"/><use xlink:href="#1"/></svg><svg x="1575"><use xlink:href="#a"/><use xlink:href="#b" x="31.996"/><use xlink:href="#2"/></svg><svg x="1650"><use xlink:href="#a"/><use xlink:href="#b" x="32.996"/><use xlink:href="#3"/></svg><svg x="1725"><use xlink:href="#a"/><use xlink:href="#b" x="33.996"/><use xlink:href="#4"/></svg><svg x="1800"><use xlink:href="#a"/><use xlink:href="#b" x="34.996"/><use xlink:href="#5"/></svg><svg x="1875"><use xlink:href="#a"/><use xlink:href="#b" x="35.996"/><use xlink:href="#6"/></svg><svg x="1950"><use xlink:href="#a"/><use xlink:href="#b" x="36.996"/><use xlink:href="#7"/></svg><svg x="2025"><use xlink:href="#a"/><use xlink:href="#b" x="37.996"/><use xlink:href="#8"/></svg><svg x="2100"><use xlink:href="#a"/><use xlink:href="#b" x="38.996"/><use xlink:href="#8"/></svg><svg x="2175"><use xlink:href="#a"/><use xlink:href="#b" x="39.996"/><use xlink:href="#14"/></svg><svg x="2250"><use xlink:href="#a"/><use xlink:href="#b" x="40.996"/><use xlink:href="#15"/></svg><svg x="2325"><use xlink:href="#a"/><use xlink:href="#b" x="41.996"/><use xlink:href="#16"/></svg><svg x="2400"><use xlink:href="#a"/><use xlink:href="#b" x="42.996"/><use xlink:href="#17"/></svg><svg x="2475"><use xlink:href="#a"/><use xlink:href="#b" x="43.996"/><use xlink:href="#18"/></svg><svg x="2550"><use xlink:href="#a"/><use xlink:href="#b" x="44.996"/><use xlink:href="#18"/></svg><svg x="2625"><use xlink:href="#a"/><use xlink:href="#b" x="45.996"/><text y="1.67" class="f">frost@winter</text><text x="12.024" y="1.67" class="g">:acadbot</text><text x="21.042" y="1.67" class="h">(master)</text><text x="29.058" y="1.67" class="g">$</text><text x="31.062" y="1.67" class="g">acadbot</text><text x="39.078" y="1.67" class="g">fetch</text><text x="45.09" y="1.67" class="g">a</text></svg><svg x="2700"><use xlink:href="#a"/><use xlink:href="#b" x="46.996"/><text y="1.67" class="f">frost@winter</text><text x="12.024" y="1.67" class="g">:acadbot</text><text x="21.042" y="1.67" class="h">(master)</text><text x="29.058" y="1.67" class="g">$</text><text x="31.062" y="1.67" class="g">acadbot</text><text x="39.078" y="1.67" class="g">fetch</text><text x="45.09" y="1.67" class="g">at</text></svg><svg x="2775"><use xlink:href="#a"/><use xlink:href="#b" x="47.996"/><text y="1.67" class="f">frost@winter</text><text x="12.024" y="1.67" class="g">:acadbot</text><text x="21.042" y="1.67" class="h">(master)</text><text x="29.058" y="1.67" class="g">$</text><text x="31.062" y="1.67" class="g">acadbot</text><text x="39.078" y="1.67" class="g">fetch</text><text x="45.09" y="1.67" class="g">att</text></svg><svg x="2850"><use xlink:href="#a"/><use xlink:href="#b" x="48.996"/><text y="1.67" class="f">frost@winter</text><text x="12.024" y="1.67" class="g">:acadbot</text><text x="21.042" y="1.67" class="h">(master)</text><text x="29.058" y="1.67" class="g">$</text><text x="31.062" y="1.67" class="g">acadbot</text><text x="39.078" y="1.67" class="g">fetch</text><text x="45.09" y="1.67" class="g">atte</text></svg><svg x="2925"><use xlink:href="#a"/><use xlink:href="#b" x="49.996"/><text y="1.67" class="f">frost@winter</text><text x="12.024" y="1.67" class="g">:acadbot</text><text x="21.042" y="1.67" class="h">(master)</text><text x="29.058" y="1.67" class="g">$</text><text x="31.062" y="1.67" class="g">acadbot</text><text x="39.078" y="1.67" class="g">fetch</text><text x="45.09" y="1.67" class="g">atten</text></svg><svg x="3000"><use xlink:href="#a"/><use xlink:href="#b" x="50.996"/><text y="1.67" class="f">frost@winter</text><text x="12.024" y="1.67" class="g">:acadbot</text><text x="21.042" y="1.67" class="h">(master)</text><text x="29.058" y="1.67" class="g">$</text><text x="31.062" y="1.67" class="g">acadbot</text><text x="39.078" y="1.67" class="g">fetch</text><text x="45.09" y="1.67" class="g">attend</text></svg><svg x="3075"><use xlink:href="#a"/><use xlink:href="#b" x="51.996"/><text y="1.67" class="f">frost@winter</text><text x="12.024" y="1.67" class="g">:acadbot</text><text x="21.042" y="1.67" class="h">(master)</text><text x="29.058" y="1.67" class="g">$</text><text x="31.062" y="1.67" class="g">acadbot</text><text x="39.078" y="1.67" class="g">fetch</text><text x="45.09" y="1.67" class="g">attenda</text></svg><svg x="3150"><use xlink:href="#a"/><use xlink:href="#b" x="52.996"/><text y="1.67" class="f">frost@winter</text><text x="12.024" y="1.67" class="g">:acadbot</text><text x="21.042" y="1.67" class="h">(master)</text><text x="29.058" y="1.67" class="g">$</text><text x="31.062" y="1.67" class="g">acadbot</text><text x="39.078" y="1.67" class="g">fetch</text><text x="45.09" y="1.67" class="g">attendan</text></svg><svg x="3225"><use xlink:href="#a"/><use xlink:href="#b" x="53.996"/><text y="1.67" class="f">frost@winter</text><text x="12.024" y="1.67" class="g">:acadbot</text><text x="21.042" y="1.67" class="h">(master)</text><text x="29.058" y="1.67" class="g">$</text><text x="31.062" y="1.67" class="g">acadbot</text><text x="39.078" y="1.67" class="g">fetch</text><text x="45.09" y="1.67" class="g">attendanc</text></svg><svg x="3300"><use xlink:href="#a"/><use xlink:href="#b" x="54.996"/><use xlink:href="#19"/></svg><svg x="3375"><use xlink:href="#a"/><use xlink:href="#b" x="-.004" y="2.146"/><use xlink:href="#19"/></svg><svg x="3450"><use xlink:href="#a"/><use xlink:href="#b" x="-.004" y="4.317"/><use xlink:href="#19"/><use xlink:href="#20" y="2.171"/></svg><svg x="3525"><use xlink:href="#a"/><use xlink:href="#b" x="-.004" y="30.369"/><use xlink:href="#19"/><use xlink:href="#20" y="2.171"/><use xlink:href="#21" y="4.342"/><use xlink:href="#22" y="6.513"/><use xlink:href="#23" y="8.684"/><use xlink:href="#24" y="10.855"/><use xlink:href="#25" y="13.026"/><use xlink:href="#26" y="15.197"/><use xlink:href="#27" y="17.368"/><use xlink:href="#28" y="19.539"/><use xlink:href="#29" y="21.71"/><use xlink:href="#30" y="23.881"/><use xlink:href="#31" y="26.052"/><use xlink:href="#32" y="28.223"/></svg><svg x="3600"><use xlink:href="#a"/><use xlink:href="#b" x="30.996" y="30.369"/><use xlink:href="#19"/><use xlink:href="#20" y="2.171"/><use xlink:href="#21" y="4.342"/><use xlink:href="#22" y="6.513"/><use xlink:href="#23" y="8.684"/><use xlink:href="#24" y="10.855"/><use xlink:href="#25" y="13.026"/><use xlink:href="#26" y="15.197"/><use xlink:href="#27" y="17.368"/><use xlink:href="#28" y="19.539"/><use xlink:href="#29" y="21.71"/><use xlink:href="#30" y="23.881"/><use xlink:href="#31" y="26.052"/><use xlink:href="#32" y="28.223"/><use xlink:href="#1" y="30.394"/></svg><svg x="3675"><use xlink:href="#a"/><use xlink:href="#b" x="30.996"/><use xlink:href="#1"/></svg><svg x="3750"><use xlink:href="#a"/><use xlink:href="#b" x="31.996"/><use xlink:href="#2"/></svg><svg x="3825"><use xlink:href="#a"/><use xlink:href="#b" x="32.996"/><use xlink:href="#3"/></svg><svg x="3900"><use xlink:href="#a"/><use xlink:href="#b" x="33.996"/><use xlink:href="#4"/></svg><svg x="3975"><use xlink:href="#a"/><use xlink:href="#b" x="34.996"/><use xlink:href="#5"/></svg><svg x="4050"><use xlink:href="#a"/><use xlink:href="#b" x="35.996"/><use xlink:href="#6"/></svg><svg x="4125"><use xlink:href="#a"/><use xlink:href="#b" x="36.996"/><use xlink:href="#7"/></svg><svg x="4200"><use xlink:href="#a"/><use xlink:href="#b" x="37.996"/><use xlink:href="#8"/></svg><svg x="4275"><use xlink:href="#a"/><use xlink:href="#b" x="38.996"/><use xlink:href="#8"/></svg><svg x="4350"><use xlink:href="#a"/><use xlink:href="#b" x="39.996"/><use xlink:href="#14"/></svg><svg x="4425"><use xlink:href="#a"/><use xlink:href="#b" x="40.996"/><use xlink:href="#15"/></svg><svg x="4500"><use xlink:href="#a"/><use xlink:href="#b" x="41.996"/><use xlink:href="#16"/></svg><svg x="4575"><use xlink:href="#a"/><use xlink:href="#b" x="42.996"/><use xlink:href="#17"/></svg><svg x="4650"><use xlink:href="#a"/><use xlink:href="#b" x="43.996"/><use xlink:href="#18"/></svg><svg x="4725"><use xlink:href="#a"/><use xlink:href="#b" x="44.996"/><use xlink:href="#18"/></svg><svg x="4800"><use xlink:href="#a"/><use xlink:href="#b" x="45.996"/><text y="1.67" class="f">frost@winter</text><text x="12.024" y="1.67" class="g">:acadbot</text><text x="21.042" y="1.67" class="h">(master)</text><text x="29.058" y="1.67" class="g">$</text><text x="31.062" y="1.67" class="g">acadbot</text><text x="39.078" y="1.67" class="g">fetch</text><text x="45.09" y="1.67" class="g">t</text></svg><svg x="4875"><use xlink:href="#a"/><use xlink:href="#b" x="46.996"/><text y="1.67" class="f">frost@winter</text><text x="12.024" y="1.67" class="g">:acadbot</text><text x="21.042" y="1.67" class="h">(master)</text><text x="29.058" y="1.67" class="g">$</text><text x="31.062" y="1.67" class="g">acadbot</text><text x="39.078" y="1.67" class="g">fetch</text><text x="45.09" y="1.67" class="g">ti</text></svg><svg x="4950"><use xlink:href="#a"/><use xlink:href="#b" x="47.996"/><text y="1.67" class="f">frost@winter</text><text x="12.024" y="1.67" class="g">:acadbot</text><text x="21.042" y="1.67" class="h">(master)</text><text x="29.058" y="1.67" class="g">$</text><text x="31.062" y="1.67" class="g">acadbot</text><text x="39.078" y="1.67" class="g">fetch</text><text x="45.09" y="1.67" class="g">tim</text></svg><svg x="5025"><use xlink:href="#a"/><use xlink:href="#b" x="48.996"/><text y="1.67" class="f">frost@winter</text><text x="12.024" y="1.67" class="g">:acadbot</text><text x="21.042" y="1.67" class="h">(master)</text><text x="29.058" y="1.67" class="g">$</text><text x="31.062" y="1.67" class="g">acadbot</text><text x="39.078" y="1.67" class="g">fetch</text><text x="45.09" y="1.67" class="g">time</text></svg><svg x="5100"><use xlink:href="#a"/><use xlink:href="#b" x="49.996"/><text y="1.67" class="f">frost@winter</text><text x="12.024" y="1.67" class="g">:acadbot</text><text x="21.042" y="1.67" class="h">(master)</text><text x="29.058" y="1.67" class="g">$</text><text x="31.062" y="1.67" class="g">acadbot</text><text x="39.078" y="1.67" class="g">fetch</text><text x="45.09" y="1.67" class="g">time-</text></svg><svg x="5175"><use xlink:href="#a"/><use xlink:href="#b" x="50.996"/><text y="1.67" class="f">frost@winter</text><text x="12.024" y="1.67" class="g">:acadbot</text><text x="21.042" y="1.67" class="h">(master)</text><text x="29.058" y="1.67" class="g">$</text><text x="31.062" y="1.67" class="g">acadbot</text><text x="39.078" y="1.67" class="g">fetch</text><text x="45.09" y="1.67" class="g">time-t</text></svg><svg x="5250"><use xlink:href="#a"/><use xlink:href="#b" x="51.996"/><text y="1.67" class="f">frost@winter</text><text x="12.024" y="1.67" class="g">:acadbot</text><text x="21.042" y="1.67" class="h">(master)</text><text x="29.058" y="1.67" class="g">$</text><text x="31.062" y="1.67" class="g">acadbot</text><text x="39.078" y="1.67" class="g">fetch</text><text x="45.09" y="1.67" class="g">time-ta</text></svg><svg x="5325"><use xlink:href="#a"/><use xlink:href="#b" x="52.996"/><text y="1.67" class="f">frost@winter</text><text x="12.024" y="1.67" class="g">:acadbot</text><text x="21.042" y="1.67" class="h">(master)</text><text x="29.058" y="1.67" class="g">$</text><text x="31.062" y="1.67" class="g">acadbot</text><text x="39.078" y="1.67" class="g">fetch</text><text x="45.09" y="1.67" class="g">time-tab</text></svg><svg x="5400"><use xlink:href="#a"/><use xlink:href="#b" x="53.996"/><text y="1.67" class="f">frost@winter</text><text x="12.024" y="1.67" class="g">:acadbot</text><text x="21.042" y="1.67" class="h">(master)</text><text x="29.058" y="1.67" class="g">$</text><text x="31.062" y="1.67" class="g">acadbot</text><text x="39.078" y="1.67" class="g">fetch</text><text x="45.09" y="1.67" class="g">time-tabl</text></svg><svg x="5475"><use xlink:href="#a"/><use xlink:href="#b" x="54.996"/><use xlink:href="#33"/></svg><svg x="5550"><use xlink:href="#a"/><use xlink:href="#b" x="55.996"/><use xlink:href="#33"/></svg><svg x="5625"><use xlink:href="#a"/><use xlink:href="#b" x="56.996"/><text y="1.67" class="f">frost@winter</text><text x="12.024" y="1.67" class="g">:acadbot</text><text x="21.042" y="1.67" class="h">(master)</text><text x="29.058" y="1.67" class="g">$</text><text x="31.062" y="1.67" class="g">acadbot</text><text x="39.078" y="1.67" class="g">fetch</text><text x="45.09" y="1.67" class="g">time-table</text><text x="56.112" y="1.67" class="g">x</text></svg><svg x="5700"><use xlink:href="#a"/><use xlink:href="#b" x="57.996"/><use xlink:href="#34"/></svg><svg x="5775"><use xlink:href="#a"/><use xlink:href="#b" x="58.996"/><use xlink:href="#34"/></svg><svg x="5850"><use xlink:href="#a"/><use xlink:href="#b" x="59.996"/><text y="1.67" class="f">frost@winter</text><text x="12.024" y="1.67" class="g">:acadbot</text><text x="21.042" y="1.67" class="h">(master)</text><text x="29.058" y="1.67" class="g">$</text><text x="31.062" y="1.67" class="g">acadbot</text><text x="39.078" y="1.67" class="g">fetch</text><text x="45.09" y="1.67" class="g">time-table</text><text x="56.112" y="1.67" class="g">x8</text><text x="59.118" y="1.67" class="g">m</text></svg><svg x="5925"><use xlink:href="#a"/><use xlink:href="#b" x="60.996"/><text y="1.67" class="f">frost@winter</text><text x="12.024" y="1.67" class="g">:acadbot</text><text x="21.042" y="1.67" class="h">(master)</text><text x="29.058" y="1.67" class="g">$</text><text x="31.062" y="1.67" class="g">acadbot</text><text x="39.078" y="1.67" class="g">fetch</text><text x="45.09" y="1.67" class="g">time-table</text><text x="56.112" y="1.67" class="g">x8</text><text x="59.118" y="1.67" class="g">mo</text></svg><svg x="6000"><use xlink:href="#a"/><use xlink:href="#b" x="61.996"/><use xlink:href="#35"/></svg><svg x="6075"><use xlink:href="#a"/><use xlink:href="#b" x="-.004" y="2.146"/><use xlink:href="#35"/></svg><svg x="6150"><use xlink:href="#a"/><use xlink:href="#b" x="-.004" y="4.317"/><use xlink:href="#35"/><use xlink:href="#36" y="2.171"/></svg><svg x="6225"><use xlink:href="#a"/><use xlink:href="#b" x="-.004" y="23.856"/><use xlink:href="#35"/><use xlink:href="#36" y="2.171"/><use xlink:href="#37" y="4.342"/><use xlink:href="#38" y="6.513"/><use xlink:href="#39" y="8.684"/><use xlink:href="#40" y="10.855"/><use xlink:href="#41" y="13.026"/><use xlink:href="#42" y="15.197"/><use xlink:href="#43" y="17.368"/><use xlink:href="#44" y="19.539"/><use xlink:href="#37" y="21.71"/></svg><svg x="6300"><use xlink:href="#a"/><use xlink:href="#b" x="30.996" y="23.856"/><use xlink:href="#35"/><use xlink:href="#36" y="2.171"/><use xlink:href="#37" y="4.342"/><use xlink:href="#38" y="6.513"/><use xlink:href="#39" y="8.684"/><use xlink:href="#40" y="10.855"/><use xlink:href="#41" y="13.026"/><use xlink:href="#42" y="15.197"/><use xlink:href="#43" y="17.368"/><use xlink:href="#44" y="19.539"/><use xlink:href="#37" y="21.71"/><use xlink:href="#1" y="23.881"/></svg><svg x="6375"><use xlink:href="#a"/><use xlink:href="#b" x="30.996"/><use xlink:href="#1"/></svg><svg x="6450"><use xlink:href="#a"/><use xlink:href="#b" x="31.996"/><use xlink:href="#2"/></svg><svg x="6525"><use xlink:href="#a"/><use xlink:href="#b" x="32.996"/><use xlink:href="#3"/></svg><svg x="6600"><use xlink:href="#a"/><use xlink:href="#b" x="33.996"/><use xlink:href="#4"/></svg><svg x="6675"><use xlink:href="#a"/><use xlink:href="#b" x="34.996"/><use xlink:href="#5"/></svg><svg x="6750"><use xlink:href="#a"/><use xlink:href="#b" x="35.996"/><use xlink:href="#6"/></svg><svg x="6825"><use xlink:href="#a"/><use xlink:href="#b" x="36.996"/><use xlink:href="#7"/></svg><svg x="6900"><use xlink:href="#a"/><use xlink:href="#b" x="37.996"/><use xlink:href="#8"/></svg><svg x="6975"><use xlink:href="#a"/><use xlink:href="#b" x="38.996"/><use xlink:href="#8"/></svg><svg x="7050"><use xlink:href="#a"/><use xlink:href="#b" x="39.996"/><use xlink:href="#14"/></svg><svg x="7125"><use xlink:href="#a"/><use xlink:href="#b" x="40.996"/><use xlink:href="#15"/></svg><svg x="7200"><use xlink:href="#a"/><use xlink:href="#b" x="41.996"/><use xlink:href="#16"/></svg><svg x="7275"><use xlink:href="#a"/><use xlink:href="#b" x="42.996"/><use xlink:href="#17"/></svg><svg x="7350"><use xlink:href="#a"/><use xlink:href="#b" x="43.996"/><use xlink:href="#18"/></svg><svg x="7425"><use xlink:href="#a"/><use xlink:href="#b" x="44.996"/><use xlink:href="#18"/></svg><svg x="7500"><use xlink:href="#a"/><use xlink:href="#b" x="45.996"/><text y="1.67" class="f">frost@winter</text><text x="12.024" y="1.67" class="g">:acadbot</text><text x="21.042" y="1.67" class="h">(master)</text><text x="29.058" y="1.67" class="g">$</text><text x="31.062" y="1.67" class="g">acadbot</text><text x="39.078" y="1.67" class="g">fetch</text><text x="45.09" y="1.67" class="g">c</text></svg><svg x="7575"><use xlink:href="#a"/><use xlink:href="#b" x="46.996"/><text y="1.67" class="f">frost@winter</text><text x="12.024" y="1.67" class="g">:acadbot</text><text x="21.042" y="1.67" class="h">(master)</text><text x="29.058" y="1.67" class="g">$</text><text x="31.062" y="1.67" class="g">acadbot</text><text x="39.078" y="1.67" class="g">fetch</text><text x="45.09" y="1.67" class="g">cg</text></svg><svg x="7650"><use xlink:href="#a"/><use xlink:href="#b" x="47.996"/><text y="1.67" class="f">frost@winter</text><text x="12.024" y="1.67" class="g">:acadbot</text><text x="21.042" y="1.67" class="h">(master)</text><text x="29.058" y="1.67" class="g">$</text><text x="31.062" y="1.67" class="g">acadbot</text><text x="39.078" y="1.67" class="g">fetch</text><text x="45.09" y="1.67" class="g">cgp</text></svg><svg x="7725"><use xlink:href="#a"/><use xlink:href="#b" x="48.996"/><use xlink:href="#45"/></svg><svg x="7800"><use xlink:href="#a"/><use xlink:href="#b" x="-.004" y="2.146"/><use xlink:href="#45"/></svg><svg x="7875"><use xlink:href="#a"/><use xlink:href="#b" x="-.004" y="4.317"/><use xlink:href="#45"/><use xlink:href="#46" y="2.171"/></svg><svg x="7950"><use xlink:href="#a"/><use xlink:href="#b" x="-.004" y="10.83"/><use xlink:href="#45"/><use xlink:href="#46" y="2.171"/><use xlink:href="#47" y="4.342"/><use xlink:href="#48" y="6.513"/><use xlink:href="#47" y="8.684"/></svg><svg x="8025"><use xlink:href="#a"/><use xlink:href="#b" x="30.996" y="10.83"/><use xlink:href="#45"/><use xlink:href="#46" y="2.171"/><use xlink:href="#47" y="4.342"/><use xlink:href="#48" y="6.513"/><use xlink:href="#47" y="8.684"/><use xlink:href="#1" y="10.855"/></svg><svg x="8100"><use xlink:href="#a"/><use xlink:href="#b" x="30.996"/><use xlink:href="#1"/></svg><svg x="8175"><use xlink:href="#a"/><use xlink:href="#b" x="31.996"/><use xlink:href="#2"/></svg><svg x="8250"><use xlink:href="#a"/><use xlink:href="#b" x="32.996"/><use xlink:href="#3"/></svg><svg x="8325"><use xlink:href="#a"/><use xlink:href="#b" x="33.996"/><use xlink:href="#4"/></svg><svg x="8400"><use xlink:href="#a"/><use xlink:href="#b" x="34.996"/><use xlink:href="#5"/></svg><svg x="8475"><use xlink:href="#a"/><use xlink:href="#b" x="35.996"/><use xlink:href="#6"/></svg><svg x="8550"><use xlink:href="#a"/><use xlink:href="#b" x="36.996"/><use xlink:href="#7"/></svg><svg x="8625"><use xlink:href="#a"/><use xlink:href="#b" x="37.996"/><use xlink:href="#8"/></svg><svg x="8700"><use xlink:href="#a"/><use xlink:href="#b" x="38.996"/><use xlink:href="#8"/></svg><svg x="8775"><use xlink:href="#a"/><use xlink:href="#b" x="39.996"/><use xlink:href="#14"/></svg><svg x="8850"><use xlink:href="#a"/><use xlink:href="#b" x="40.996"/><use xlink:href="#15"/></svg><svg x="8925"><use xlink:href="#a"/><use xlink:href="#b" x="41.996"/><use xlink:href="#16"/></svg><svg x="9000"><use xlink:href="#a"/><use xlink:href="#b" x="42.996"/><use xlink:href="#17"/></svg><svg x="9075"><use xlink:href="#a"/><use xlink:href="#b" x="43.996"/><use xlink:href="#18"/></svg><svg x="9150"><use xlink:href="#a"/><use xlink:href="#b" x="44.996"/><use xlink:href="#18"/></svg><svg x="9225"><use xlink:href="#a"/><use xlink:href="#b" x="45.996"/><text y="1.67" class="f">frost@winter</text><text x="12.024" y="1.67" class="g">:acadbot</text><text x="21.042" y="1.67" class="h">(master)</text><text x="29.058" y="1.67" class="g">$</text><text x="31.062" y="1.67" class="g">acadbot</text><text x="39.078" y="1.67" class="g">fetch</text><text x="45.09" y="1.67" class="g">s</text></svg><svg x="9300"><use xlink:href="#a"/><use xlink:href="#b" x="46.996"/><text y="1.67" class="f">frost@winter</text><text x="12.024" y="1.67" class="g">:acadbot</text><text x="21.042" y="1.67" class="h">(master)</text><text x="29.058" y="1.67" class="g">$</text><text x="31.062" y="1.67" class="g">acadbot</text><text x="39.078" y="1.67" class="g">fetch</text><text x="45.09" y="1.67" class="g">sg</text></svg><svg x="9375"><use xlink:href="#a"/><use xlink:href="#b" x="47.996"/><text y="1.67" class="f">frost@winter</text><text x="12.024" y="1.67" class="g">:acadbot</text><text x="21.042" y="1.67" class="h">(master)</text><text x="29.058" y="1.67" class="g">$</text><text x="31.062" y="1.67" class="g">acadbot</text><text x="39.078" y="1.67" class="g">fetch</text><text x="45.09" y="1.67" class="g">sgp</text></svg><svg x="9450"><use xlink:href="#a"/><use xlink:href="#b" x="48.996"/><use xlink:href="#49"/></svg><svg x="9525"><use xlink:href="#a"/><use xlink:href="#b" x="-.004" y="2.146"/><use xlink:href="#49"/></svg><svg x="9600"><use xlink:href="#a"/><use xlink:href="#b" x="-.004" y="4.317"/><use xlink:href="#49"/><use xlink:href="#50" y="2.171"/></svg><svg x="9675"><use xlink:href="#a"/><use xlink:href="#b" x="-.004" y="19.514"/><use xlink:href="#49"/><use xlink:href="#50" y="2.171"/><use xlink:href="#51" y="4.342"/><use xlink:href="#52" y="6.513"/><use xlink:href="#53" y="8.684"/><use xlink:href="#54" y="10.855"/><use xlink:href="#55" y="13.026"/><use xlink:href="#56" y="15.197"/><use xlink:href="#57" y="17.368"/></svg><svg x="9750"><use xlink:href="#a"/><use xlink:href="#b" x="30.996" y="19.514"/><use xlink:href="#49"/><use xlink:href="#50" y="2.171"/><use xlink:href="#51" y="4.342"/><use xlink:href="#52" y="6.513"/><use xlink:href="#53" y="8.684"/><use xlink:href="#54" y="10.855"/><use xlink:href="#55" y="13.026"/><use xlink:href="#56" y="15.197"/><use xlink:href="#57" y="17.368"/><use xlink:href="#1" y="19.539"/></svg><svg x="9825"><use xlink:href="#a"/><use xlink:href="#b" x="-.004" y="21.685"/><use xlink:href="#49"/><use xlink:href="#50" y="2.171"/><use xlink:href="#51" y="4.342"/><use xlink:href="#52" y="6.513"/><use xlink:href="#53" y="8.684"/><use xlink:href="#54" y="10.855"/><use xlink:href="#55" y="13.026"/><use xlink:href="#56" y="15.197"/><use xlink:href="#57" y="17.368"/><text y="21.209" class="f">frost@winter</text><text x="12.024" y="21.209" class="g">:acadbot</text><text x="21.042" y="21.209" class="h">(master)</text><text x="29.058" y="21.209" class="g">$</text><text x="31.062" y="21.209" class="g">exit</text></svg></svg></g></g></svg></svg>